<mxfile host="app.diagrams.net" modified="2023-12-26T15:25:40.902Z" agent="Mozilla/5.0 (Windows NT 10.0; Win64; x64) AppleWebKit/537.36 (KHTML, like Gecko) Chrome/120.0.0.0 Safari/537.36" etag="Rwia_2Rjy4ozL6AX1HRf" version="22.1.11" type="github">
  <diagram name="Page-1" id="e56a1550-8fbb-45ad-956c-1786394a9013">
    <mxGraphModel dx="2100" dy="1060" grid="1" gridSize="10" guides="1" tooltips="1" connect="1" arrows="1" fold="1" page="1" pageScale="1" pageWidth="1100" pageHeight="850" background="none" math="0" shadow="0">
      <root>
        <mxCell id="0" />
        <mxCell id="1" parent="0" />
        <mxCell id="ESqHXRTEYJbAyF0UcSam-1" value="Tb_menu" style="swimlane;html=1;fontStyle=0;childLayout=stackLayout;horizontal=1;startSize=26;fillColor=#e0e0e0;horizontalStack=0;resizeParent=1;resizeLast=0;collapsible=1;marginBottom=0;swimlaneFillColor=#ffffff;align=center;rounded=0;shadow=0;comic=0;labelBackgroundColor=none;strokeWidth=1;fontFamily=Verdana;fontSize=14" vertex="1" parent="1">
          <mxGeometry x="460" y="357" width="160" height="170" as="geometry" />
        </mxCell>
        <mxCell id="ESqHXRTEYJbAyF0UcSam-2" value="id_menu" style="shape=partialRectangle;top=0;left=0;right=0;bottom=1;html=1;align=left;verticalAlign=middle;fillColor=none;spacingLeft=34;spacingRight=4;whiteSpace=wrap;overflow=hidden;rotatable=0;points=[[0,0.5],[1,0.5]];portConstraint=eastwest;dropTarget=0;fontStyle=5;" vertex="1" parent="ESqHXRTEYJbAyF0UcSam-1">
          <mxGeometry y="26" width="160" height="30" as="geometry" />
        </mxCell>
        <mxCell id="ESqHXRTEYJbAyF0UcSam-3" value="PK" style="shape=partialRectangle;top=0;left=0;bottom=0;html=1;fillColor=none;align=left;verticalAlign=middle;spacingLeft=4;spacingRight=4;whiteSpace=wrap;overflow=hidden;rotatable=0;points=[];portConstraint=eastwest;part=1;" vertex="1" connectable="0" parent="ESqHXRTEYJbAyF0UcSam-2">
          <mxGeometry width="30" height="30" as="geometry" />
        </mxCell>
        <mxCell id="ESqHXRTEYJbAyF0UcSam-4" value="prix" style="shape=partialRectangle;top=0;left=0;right=0;bottom=0;html=1;align=left;verticalAlign=top;fillColor=none;spacingLeft=34;spacingRight=4;whiteSpace=wrap;overflow=hidden;rotatable=0;points=[[0,0.5],[1,0.5]];portConstraint=eastwest;dropTarget=0;" vertex="1" parent="ESqHXRTEYJbAyF0UcSam-1">
          <mxGeometry y="56" width="160" height="26" as="geometry" />
        </mxCell>
        <mxCell id="ESqHXRTEYJbAyF0UcSam-5" value="" style="shape=partialRectangle;top=0;left=0;bottom=0;html=1;fillColor=none;align=left;verticalAlign=top;spacingLeft=4;spacingRight=4;whiteSpace=wrap;overflow=hidden;rotatable=0;points=[];portConstraint=eastwest;part=1;" vertex="1" connectable="0" parent="ESqHXRTEYJbAyF0UcSam-4">
          <mxGeometry width="30" height="26" as="geometry" />
        </mxCell>
        <mxCell id="ESqHXRTEYJbAyF0UcSam-127" value="&lt;font color=&quot;#ff0000&quot;&gt;# id_poivre&lt;/font&gt;" style="shape=partialRectangle;top=0;left=0;right=0;bottom=0;html=1;align=left;verticalAlign=top;fillColor=none;spacingLeft=34;spacingRight=4;whiteSpace=wrap;overflow=hidden;rotatable=0;points=[[0,0.5],[1,0.5]];portConstraint=eastwest;dropTarget=0;" vertex="1" parent="ESqHXRTEYJbAyF0UcSam-1">
          <mxGeometry y="82" width="160" height="26" as="geometry" />
        </mxCell>
        <mxCell id="ESqHXRTEYJbAyF0UcSam-128" value="" style="shape=partialRectangle;top=0;left=0;bottom=0;html=1;fillColor=none;align=left;verticalAlign=top;spacingLeft=4;spacingRight=4;whiteSpace=wrap;overflow=hidden;rotatable=0;points=[];portConstraint=eastwest;part=1;" vertex="1" connectable="0" parent="ESqHXRTEYJbAyF0UcSam-127">
          <mxGeometry width="30" height="26" as="geometry" />
        </mxCell>
        <mxCell id="ESqHXRTEYJbAyF0UcSam-6" value="&lt;font color=&quot;#ff0000&quot;&gt;# id_categorie&lt;/font&gt;" style="shape=partialRectangle;top=0;left=0;right=0;bottom=0;html=1;align=left;verticalAlign=top;fillColor=none;spacingLeft=34;spacingRight=4;whiteSpace=wrap;overflow=hidden;rotatable=0;points=[[0,0.5],[1,0.5]];portConstraint=eastwest;dropTarget=0;" vertex="1" parent="ESqHXRTEYJbAyF0UcSam-1">
          <mxGeometry y="108" width="160" height="62" as="geometry" />
        </mxCell>
        <mxCell id="ESqHXRTEYJbAyF0UcSam-7" value="" style="shape=partialRectangle;top=0;left=0;bottom=0;html=1;fillColor=none;align=left;verticalAlign=top;spacingLeft=4;spacingRight=4;whiteSpace=wrap;overflow=hidden;rotatable=0;points=[];portConstraint=eastwest;part=1;" vertex="1" connectable="0" parent="ESqHXRTEYJbAyF0UcSam-6">
          <mxGeometry width="30" height="62" as="geometry" />
        </mxCell>
        <mxCell id="ESqHXRTEYJbAyF0UcSam-8" value="Tb_carte_bistrot" style="swimlane;html=1;fontStyle=0;childLayout=stackLayout;horizontal=1;startSize=26;fillColor=#e0e0e0;horizontalStack=0;resizeParent=1;resizeLast=0;collapsible=1;marginBottom=0;swimlaneFillColor=#ffffff;align=center;rounded=0;shadow=0;comic=0;labelBackgroundColor=none;strokeWidth=1;fontFamily=Verdana;fontSize=14" vertex="1" parent="1">
          <mxGeometry x="782" y="650" width="160" height="190" as="geometry" />
        </mxCell>
        <mxCell id="ESqHXRTEYJbAyF0UcSam-9" value="id_carte_bistrot" style="shape=partialRectangle;top=0;left=0;right=0;bottom=1;html=1;align=left;verticalAlign=middle;fillColor=none;spacingLeft=34;spacingRight=4;whiteSpace=wrap;overflow=hidden;rotatable=0;points=[[0,0.5],[1,0.5]];portConstraint=eastwest;dropTarget=0;fontStyle=5;" vertex="1" parent="ESqHXRTEYJbAyF0UcSam-8">
          <mxGeometry y="26" width="160" height="30" as="geometry" />
        </mxCell>
        <mxCell id="ESqHXRTEYJbAyF0UcSam-10" value="PK" style="shape=partialRectangle;top=0;left=0;bottom=0;html=1;fillColor=none;align=left;verticalAlign=middle;spacingLeft=4;spacingRight=4;whiteSpace=wrap;overflow=hidden;rotatable=0;points=[];portConstraint=eastwest;part=1;" vertex="1" connectable="0" parent="ESqHXRTEYJbAyF0UcSam-9">
          <mxGeometry width="30" height="30" as="geometry" />
        </mxCell>
        <mxCell id="ESqHXRTEYJbAyF0UcSam-11" value="categorie" style="shape=partialRectangle;top=0;left=0;right=0;bottom=0;html=1;align=left;verticalAlign=top;fillColor=none;spacingLeft=34;spacingRight=4;whiteSpace=wrap;overflow=hidden;rotatable=0;points=[[0,0.5],[1,0.5]];portConstraint=eastwest;dropTarget=0;" vertex="1" parent="ESqHXRTEYJbAyF0UcSam-8">
          <mxGeometry y="56" width="160" height="26" as="geometry" />
        </mxCell>
        <mxCell id="ESqHXRTEYJbAyF0UcSam-12" value="" style="shape=partialRectangle;top=0;left=0;bottom=0;html=1;fillColor=none;align=left;verticalAlign=top;spacingLeft=4;spacingRight=4;whiteSpace=wrap;overflow=hidden;rotatable=0;points=[];portConstraint=eastwest;part=1;" vertex="1" connectable="0" parent="ESqHXRTEYJbAyF0UcSam-11">
          <mxGeometry width="30" height="26" as="geometry" />
        </mxCell>
        <mxCell id="ESqHXRTEYJbAyF0UcSam-13" value="prix" style="shape=partialRectangle;top=0;left=0;right=0;bottom=0;html=1;align=left;verticalAlign=top;fillColor=none;spacingLeft=34;spacingRight=4;whiteSpace=wrap;overflow=hidden;rotatable=0;points=[[0,0.5],[1,0.5]];portConstraint=eastwest;dropTarget=0;" vertex="1" parent="ESqHXRTEYJbAyF0UcSam-8">
          <mxGeometry y="82" width="160" height="26" as="geometry" />
        </mxCell>
        <mxCell id="ESqHXRTEYJbAyF0UcSam-14" value="" style="shape=partialRectangle;top=0;left=0;bottom=0;html=1;fillColor=none;align=left;verticalAlign=top;spacingLeft=4;spacingRight=4;whiteSpace=wrap;overflow=hidden;rotatable=0;points=[];portConstraint=eastwest;part=1;" vertex="1" connectable="0" parent="ESqHXRTEYJbAyF0UcSam-13">
          <mxGeometry width="30" height="26" as="geometry" />
        </mxCell>
        <mxCell id="ESqHXRTEYJbAyF0UcSam-15" value="description" style="shape=partialRectangle;top=0;left=0;right=0;bottom=0;html=1;align=left;verticalAlign=top;fillColor=none;spacingLeft=34;spacingRight=4;whiteSpace=wrap;overflow=hidden;rotatable=0;points=[[0,0.5],[1,0.5]];portConstraint=eastwest;dropTarget=0;" vertex="1" parent="ESqHXRTEYJbAyF0UcSam-8">
          <mxGeometry y="108" width="160" height="26" as="geometry" />
        </mxCell>
        <mxCell id="ESqHXRTEYJbAyF0UcSam-16" value="" style="shape=partialRectangle;top=0;left=0;bottom=0;html=1;fillColor=none;align=left;verticalAlign=top;spacingLeft=4;spacingRight=4;whiteSpace=wrap;overflow=hidden;rotatable=0;points=[];portConstraint=eastwest;part=1;" vertex="1" connectable="0" parent="ESqHXRTEYJbAyF0UcSam-15">
          <mxGeometry width="30" height="26" as="geometry" />
        </mxCell>
        <mxCell id="ESqHXRTEYJbAyF0UcSam-17" value="categorie" style="shape=partialRectangle;top=0;left=0;right=0;bottom=0;html=1;align=left;verticalAlign=top;fillColor=none;spacingLeft=34;spacingRight=4;whiteSpace=wrap;overflow=hidden;rotatable=0;points=[[0,0.5],[1,0.5]];portConstraint=eastwest;dropTarget=0;" vertex="1" parent="ESqHXRTEYJbAyF0UcSam-8">
          <mxGeometry y="134" width="160" height="26" as="geometry" />
        </mxCell>
        <mxCell id="ESqHXRTEYJbAyF0UcSam-18" value="" style="shape=partialRectangle;top=0;left=0;bottom=0;html=1;fillColor=none;align=left;verticalAlign=top;spacingLeft=4;spacingRight=4;whiteSpace=wrap;overflow=hidden;rotatable=0;points=[];portConstraint=eastwest;part=1;" vertex="1" connectable="0" parent="ESqHXRTEYJbAyF0UcSam-17">
          <mxGeometry width="30" height="26" as="geometry" />
        </mxCell>
        <mxCell id="ESqHXRTEYJbAyF0UcSam-19" value="&lt;font color=&quot;#ff0000&quot;&gt;# id_categorie&lt;/font&gt;" style="shape=partialRectangle;top=0;left=0;right=0;bottom=0;html=1;align=left;verticalAlign=top;fillColor=none;spacingLeft=34;spacingRight=4;whiteSpace=wrap;overflow=hidden;rotatable=0;points=[[0,0.5],[1,0.5]];portConstraint=eastwest;dropTarget=0;" vertex="1" parent="ESqHXRTEYJbAyF0UcSam-8">
          <mxGeometry y="160" width="160" height="30" as="geometry" />
        </mxCell>
        <mxCell id="ESqHXRTEYJbAyF0UcSam-20" value="" style="shape=partialRectangle;top=0;left=0;bottom=0;html=1;fillColor=none;align=left;verticalAlign=top;spacingLeft=4;spacingRight=4;whiteSpace=wrap;overflow=hidden;rotatable=0;points=[];portConstraint=eastwest;part=1;" vertex="1" connectable="0" parent="ESqHXRTEYJbAyF0UcSam-19">
          <mxGeometry width="30" height="30" as="geometry" />
        </mxCell>
        <mxCell id="ESqHXRTEYJbAyF0UcSam-21" value="Tb_carte_spe_bistrot" style="swimlane;html=1;fontStyle=0;childLayout=stackLayout;horizontal=1;startSize=26;fillColor=#e0e0e0;horizontalStack=0;resizeParent=1;resizeLast=0;collapsible=1;marginBottom=0;swimlaneFillColor=#ffffff;align=center;rounded=0;shadow=0;comic=0;labelBackgroundColor=none;strokeWidth=1;fontFamily=Verdana;fontSize=14" vertex="1" parent="1">
          <mxGeometry x="780" y="40" width="160" height="190" as="geometry" />
        </mxCell>
        <mxCell id="ESqHXRTEYJbAyF0UcSam-22" value="id_carte_bistrot" style="shape=partialRectangle;top=0;left=0;right=0;bottom=1;html=1;align=left;verticalAlign=middle;fillColor=none;spacingLeft=34;spacingRight=4;whiteSpace=wrap;overflow=hidden;rotatable=0;points=[[0,0.5],[1,0.5]];portConstraint=eastwest;dropTarget=0;fontStyle=5;" vertex="1" parent="ESqHXRTEYJbAyF0UcSam-21">
          <mxGeometry y="26" width="160" height="30" as="geometry" />
        </mxCell>
        <mxCell id="ESqHXRTEYJbAyF0UcSam-23" value="PK" style="shape=partialRectangle;top=0;left=0;bottom=0;html=1;fillColor=none;align=left;verticalAlign=middle;spacingLeft=4;spacingRight=4;whiteSpace=wrap;overflow=hidden;rotatable=0;points=[];portConstraint=eastwest;part=1;" vertex="1" connectable="0" parent="ESqHXRTEYJbAyF0UcSam-22">
          <mxGeometry width="30" height="30" as="geometry" />
        </mxCell>
        <mxCell id="ESqHXRTEYJbAyF0UcSam-24" value="categorie" style="shape=partialRectangle;top=0;left=0;right=0;bottom=0;html=1;align=left;verticalAlign=top;fillColor=none;spacingLeft=34;spacingRight=4;whiteSpace=wrap;overflow=hidden;rotatable=0;points=[[0,0.5],[1,0.5]];portConstraint=eastwest;dropTarget=0;" vertex="1" parent="ESqHXRTEYJbAyF0UcSam-21">
          <mxGeometry y="56" width="160" height="26" as="geometry" />
        </mxCell>
        <mxCell id="ESqHXRTEYJbAyF0UcSam-25" value="" style="shape=partialRectangle;top=0;left=0;bottom=0;html=1;fillColor=none;align=left;verticalAlign=top;spacingLeft=4;spacingRight=4;whiteSpace=wrap;overflow=hidden;rotatable=0;points=[];portConstraint=eastwest;part=1;" vertex="1" connectable="0" parent="ESqHXRTEYJbAyF0UcSam-24">
          <mxGeometry width="30" height="26" as="geometry" />
        </mxCell>
        <mxCell id="ESqHXRTEYJbAyF0UcSam-26" value="prix" style="shape=partialRectangle;top=0;left=0;right=0;bottom=0;html=1;align=left;verticalAlign=top;fillColor=none;spacingLeft=34;spacingRight=4;whiteSpace=wrap;overflow=hidden;rotatable=0;points=[[0,0.5],[1,0.5]];portConstraint=eastwest;dropTarget=0;" vertex="1" parent="ESqHXRTEYJbAyF0UcSam-21">
          <mxGeometry y="82" width="160" height="26" as="geometry" />
        </mxCell>
        <mxCell id="ESqHXRTEYJbAyF0UcSam-27" value="" style="shape=partialRectangle;top=0;left=0;bottom=0;html=1;fillColor=none;align=left;verticalAlign=top;spacingLeft=4;spacingRight=4;whiteSpace=wrap;overflow=hidden;rotatable=0;points=[];portConstraint=eastwest;part=1;" vertex="1" connectable="0" parent="ESqHXRTEYJbAyF0UcSam-26">
          <mxGeometry width="30" height="26" as="geometry" />
        </mxCell>
        <mxCell id="ESqHXRTEYJbAyF0UcSam-28" value="description" style="shape=partialRectangle;top=0;left=0;right=0;bottom=0;html=1;align=left;verticalAlign=top;fillColor=none;spacingLeft=34;spacingRight=4;whiteSpace=wrap;overflow=hidden;rotatable=0;points=[[0,0.5],[1,0.5]];portConstraint=eastwest;dropTarget=0;" vertex="1" parent="ESqHXRTEYJbAyF0UcSam-21">
          <mxGeometry y="108" width="160" height="26" as="geometry" />
        </mxCell>
        <mxCell id="ESqHXRTEYJbAyF0UcSam-29" value="" style="shape=partialRectangle;top=0;left=0;bottom=0;html=1;fillColor=none;align=left;verticalAlign=top;spacingLeft=4;spacingRight=4;whiteSpace=wrap;overflow=hidden;rotatable=0;points=[];portConstraint=eastwest;part=1;" vertex="1" connectable="0" parent="ESqHXRTEYJbAyF0UcSam-28">
          <mxGeometry width="30" height="26" as="geometry" />
        </mxCell>
        <mxCell id="ESqHXRTEYJbAyF0UcSam-30" value="categorie" style="shape=partialRectangle;top=0;left=0;right=0;bottom=0;html=1;align=left;verticalAlign=top;fillColor=none;spacingLeft=34;spacingRight=4;whiteSpace=wrap;overflow=hidden;rotatable=0;points=[[0,0.5],[1,0.5]];portConstraint=eastwest;dropTarget=0;" vertex="1" parent="ESqHXRTEYJbAyF0UcSam-21">
          <mxGeometry y="134" width="160" height="26" as="geometry" />
        </mxCell>
        <mxCell id="ESqHXRTEYJbAyF0UcSam-31" value="" style="shape=partialRectangle;top=0;left=0;bottom=0;html=1;fillColor=none;align=left;verticalAlign=top;spacingLeft=4;spacingRight=4;whiteSpace=wrap;overflow=hidden;rotatable=0;points=[];portConstraint=eastwest;part=1;" vertex="1" connectable="0" parent="ESqHXRTEYJbAyF0UcSam-30">
          <mxGeometry width="30" height="26" as="geometry" />
        </mxCell>
        <mxCell id="ESqHXRTEYJbAyF0UcSam-143" value="&lt;font color=&quot;#ff0000&quot;&gt;# id_categorie&lt;/font&gt;" style="shape=partialRectangle;top=0;left=0;right=0;bottom=0;html=1;align=left;verticalAlign=top;fillColor=none;spacingLeft=34;spacingRight=4;whiteSpace=wrap;overflow=hidden;rotatable=0;points=[[0,0.5],[1,0.5]];portConstraint=eastwest;dropTarget=0;" vertex="1" parent="ESqHXRTEYJbAyF0UcSam-21">
          <mxGeometry y="160" width="160" height="30" as="geometry" />
        </mxCell>
        <mxCell id="ESqHXRTEYJbAyF0UcSam-144" value="" style="shape=partialRectangle;top=0;left=0;bottom=0;html=1;fillColor=none;align=left;verticalAlign=top;spacingLeft=4;spacingRight=4;whiteSpace=wrap;overflow=hidden;rotatable=0;points=[];portConstraint=eastwest;part=1;" vertex="1" connectable="0" parent="ESqHXRTEYJbAyF0UcSam-143">
          <mxGeometry width="30" height="30" as="geometry" />
        </mxCell>
        <mxCell id="ESqHXRTEYJbAyF0UcSam-32" value="" style="shape=partialRectangle;top=0;left=0;right=0;bottom=0;html=1;align=left;verticalAlign=top;fillColor=none;spacingLeft=34;spacingRight=4;whiteSpace=wrap;overflow=hidden;rotatable=0;points=[[0,0.5],[1,0.5]];portConstraint=eastwest;dropTarget=0;" vertex="1" parent="ESqHXRTEYJbAyF0UcSam-21">
          <mxGeometry y="190" width="160" as="geometry" />
        </mxCell>
        <mxCell id="ESqHXRTEYJbAyF0UcSam-33" value="" style="shape=partialRectangle;top=0;left=0;bottom=0;html=1;fillColor=none;align=left;verticalAlign=top;spacingLeft=4;spacingRight=4;whiteSpace=wrap;overflow=hidden;rotatable=0;points=[];portConstraint=eastwest;part=1;" vertex="1" connectable="0" parent="ESqHXRTEYJbAyF0UcSam-32">
          <mxGeometry width="30" as="geometry" />
        </mxCell>
        <mxCell id="ESqHXRTEYJbAyF0UcSam-34" value="Tb_categorie" style="swimlane;html=1;fontStyle=0;childLayout=stackLayout;horizontal=1;startSize=26;fillColor=#e0e0e0;horizontalStack=0;resizeParent=1;resizeLast=0;collapsible=1;marginBottom=0;swimlaneFillColor=#ffffff;align=center;rounded=0;shadow=0;comic=0;labelBackgroundColor=none;strokeWidth=1;fontFamily=Verdana;fontSize=14" vertex="1" parent="1">
          <mxGeometry x="780" y="360" width="160" height="130" as="geometry" />
        </mxCell>
        <mxCell id="ESqHXRTEYJbAyF0UcSam-35" value="id_categorie" style="shape=partialRectangle;top=0;left=0;right=0;bottom=1;html=1;align=left;verticalAlign=middle;fillColor=none;spacingLeft=34;spacingRight=4;whiteSpace=wrap;overflow=hidden;rotatable=0;points=[[0,0.5],[1,0.5]];portConstraint=eastwest;dropTarget=0;fontStyle=5;" vertex="1" parent="ESqHXRTEYJbAyF0UcSam-34">
          <mxGeometry y="26" width="160" height="30" as="geometry" />
        </mxCell>
        <mxCell id="ESqHXRTEYJbAyF0UcSam-36" value="PK" style="shape=partialRectangle;top=0;left=0;bottom=0;html=1;fillColor=none;align=left;verticalAlign=middle;spacingLeft=4;spacingRight=4;whiteSpace=wrap;overflow=hidden;rotatable=0;points=[];portConstraint=eastwest;part=1;" vertex="1" connectable="0" parent="ESqHXRTEYJbAyF0UcSam-35">
          <mxGeometry width="30" height="30" as="geometry" />
        </mxCell>
        <mxCell id="ESqHXRTEYJbAyF0UcSam-37" value="&lt;font color=&quot;#ff0000&quot;&gt;# id_menu&lt;br&gt;# id_carte_bistrot&lt;br&gt;# id_carte_spe_bistrot&lt;br&gt;&lt;/font&gt;" style="shape=partialRectangle;top=0;left=0;right=0;bottom=0;html=1;align=left;verticalAlign=top;fillColor=none;spacingLeft=34;spacingRight=4;whiteSpace=wrap;overflow=hidden;rotatable=0;points=[[0,0.5],[1,0.5]];portConstraint=eastwest;dropTarget=0;" vertex="1" parent="ESqHXRTEYJbAyF0UcSam-34">
          <mxGeometry y="56" width="160" height="74" as="geometry" />
        </mxCell>
        <mxCell id="ESqHXRTEYJbAyF0UcSam-38" value="" style="shape=partialRectangle;top=0;left=0;bottom=0;html=1;fillColor=none;align=left;verticalAlign=top;spacingLeft=4;spacingRight=4;whiteSpace=wrap;overflow=hidden;rotatable=0;points=[];portConstraint=eastwest;part=1;" vertex="1" connectable="0" parent="ESqHXRTEYJbAyF0UcSam-37">
          <mxGeometry width="30" height="74" as="geometry" />
        </mxCell>
        <mxCell id="ESqHXRTEYJbAyF0UcSam-39" value="Tb_poivre" style="swimlane;html=1;fontStyle=0;childLayout=stackLayout;horizontal=1;startSize=26;fillColor=#e0e0e0;horizontalStack=0;resizeParent=1;resizeLast=0;collapsible=1;marginBottom=0;swimlaneFillColor=#ffffff;align=center;rounded=0;shadow=0;comic=0;labelBackgroundColor=none;strokeWidth=1;fontFamily=Verdana;fontSize=14" vertex="1" parent="1">
          <mxGeometry x="130" y="357" width="160" height="186" as="geometry" />
        </mxCell>
        <mxCell id="ESqHXRTEYJbAyF0UcSam-40" value="id_poivre" style="shape=partialRectangle;top=0;left=0;right=0;bottom=1;html=1;align=left;verticalAlign=middle;fillColor=none;spacingLeft=34;spacingRight=4;whiteSpace=wrap;overflow=hidden;rotatable=0;points=[[0,0.5],[1,0.5]];portConstraint=eastwest;dropTarget=0;fontStyle=5;" vertex="1" parent="ESqHXRTEYJbAyF0UcSam-39">
          <mxGeometry y="26" width="160" height="30" as="geometry" />
        </mxCell>
        <mxCell id="ESqHXRTEYJbAyF0UcSam-41" value="PK" style="shape=partialRectangle;top=0;left=0;bottom=0;html=1;fillColor=none;align=left;verticalAlign=middle;spacingLeft=4;spacingRight=4;whiteSpace=wrap;overflow=hidden;rotatable=0;points=[];portConstraint=eastwest;part=1;" vertex="1" connectable="0" parent="ESqHXRTEYJbAyF0UcSam-40">
          <mxGeometry width="30" height="30" as="geometry" />
        </mxCell>
        <mxCell id="ESqHXRTEYJbAyF0UcSam-42" value="type_poivre" style="shape=partialRectangle;top=0;left=0;right=0;bottom=0;html=1;align=left;verticalAlign=top;fillColor=none;spacingLeft=34;spacingRight=4;whiteSpace=wrap;overflow=hidden;rotatable=0;points=[[0,0.5],[1,0.5]];portConstraint=eastwest;dropTarget=0;" vertex="1" parent="ESqHXRTEYJbAyF0UcSam-39">
          <mxGeometry y="56" width="160" height="26" as="geometry" />
        </mxCell>
        <mxCell id="ESqHXRTEYJbAyF0UcSam-43" value="" style="shape=partialRectangle;top=0;left=0;bottom=0;html=1;fillColor=none;align=left;verticalAlign=top;spacingLeft=4;spacingRight=4;whiteSpace=wrap;overflow=hidden;rotatable=0;points=[];portConstraint=eastwest;part=1;" vertex="1" connectable="0" parent="ESqHXRTEYJbAyF0UcSam-42">
          <mxGeometry width="30" height="26" as="geometry" />
        </mxCell>
        <mxCell id="ESqHXRTEYJbAyF0UcSam-44" value="description_poivre" style="shape=partialRectangle;top=0;left=0;right=0;bottom=0;html=1;align=left;verticalAlign=top;fillColor=none;spacingLeft=34;spacingRight=4;whiteSpace=wrap;overflow=hidden;rotatable=0;points=[[0,0.5],[1,0.5]];portConstraint=eastwest;dropTarget=0;" vertex="1" parent="ESqHXRTEYJbAyF0UcSam-39">
          <mxGeometry y="82" width="160" height="26" as="geometry" />
        </mxCell>
        <mxCell id="ESqHXRTEYJbAyF0UcSam-45" value="" style="shape=partialRectangle;top=0;left=0;bottom=0;html=1;fillColor=none;align=left;verticalAlign=top;spacingLeft=4;spacingRight=4;whiteSpace=wrap;overflow=hidden;rotatable=0;points=[];portConstraint=eastwest;part=1;" vertex="1" connectable="0" parent="ESqHXRTEYJbAyF0UcSam-44">
          <mxGeometry width="30" height="26" as="geometry" />
        </mxCell>
        <mxCell id="ESqHXRTEYJbAyF0UcSam-46" value="prix_poivre" style="shape=partialRectangle;top=0;left=0;right=0;bottom=0;html=1;align=left;verticalAlign=top;fillColor=none;spacingLeft=34;spacingRight=4;whiteSpace=wrap;overflow=hidden;rotatable=0;points=[[0,0.5],[1,0.5]];portConstraint=eastwest;dropTarget=0;" vertex="1" parent="ESqHXRTEYJbAyF0UcSam-39">
          <mxGeometry y="108" width="160" height="26" as="geometry" />
        </mxCell>
        <mxCell id="ESqHXRTEYJbAyF0UcSam-47" value="" style="shape=partialRectangle;top=0;left=0;bottom=0;html=1;fillColor=none;align=left;verticalAlign=top;spacingLeft=4;spacingRight=4;whiteSpace=wrap;overflow=hidden;rotatable=0;points=[];portConstraint=eastwest;part=1;" vertex="1" connectable="0" parent="ESqHXRTEYJbAyF0UcSam-46">
          <mxGeometry width="30" height="26" as="geometry" />
        </mxCell>
        <mxCell id="ESqHXRTEYJbAyF0UcSam-125" value="&lt;font color=&quot;#ff0000&quot;&gt;# id_menu&lt;/font&gt;" style="shape=partialRectangle;top=0;left=0;right=0;bottom=0;html=1;align=left;verticalAlign=top;fillColor=none;spacingLeft=34;spacingRight=4;whiteSpace=wrap;overflow=hidden;rotatable=0;points=[[0,0.5],[1,0.5]];portConstraint=eastwest;dropTarget=0;strokeColor=#FF0000;" vertex="1" parent="ESqHXRTEYJbAyF0UcSam-39">
          <mxGeometry y="134" width="160" height="26" as="geometry" />
        </mxCell>
        <mxCell id="ESqHXRTEYJbAyF0UcSam-126" value="" style="shape=partialRectangle;top=0;left=0;bottom=0;html=1;fillColor=none;align=left;verticalAlign=top;spacingLeft=4;spacingRight=4;whiteSpace=wrap;overflow=hidden;rotatable=0;points=[];portConstraint=eastwest;part=1;" vertex="1" connectable="0" parent="ESqHXRTEYJbAyF0UcSam-125">
          <mxGeometry width="30" height="26" as="geometry" />
        </mxCell>
        <mxCell id="ESqHXRTEYJbAyF0UcSam-48" value="" style="shape=partialRectangle;top=0;left=0;right=0;bottom=0;html=1;align=left;verticalAlign=top;fillColor=none;spacingLeft=34;spacingRight=4;whiteSpace=wrap;overflow=hidden;rotatable=0;points=[[0,0.5],[1,0.5]];portConstraint=eastwest;dropTarget=0;" vertex="1" parent="ESqHXRTEYJbAyF0UcSam-39">
          <mxGeometry y="160" width="160" height="26" as="geometry" />
        </mxCell>
        <mxCell id="ESqHXRTEYJbAyF0UcSam-49" value="" style="shape=partialRectangle;top=0;left=0;bottom=0;html=1;fillColor=none;align=left;verticalAlign=top;spacingLeft=4;spacingRight=4;whiteSpace=wrap;overflow=hidden;rotatable=0;points=[];portConstraint=eastwest;part=1;" vertex="1" connectable="0" parent="ESqHXRTEYJbAyF0UcSam-48">
          <mxGeometry width="30" height="26" as="geometry" />
        </mxCell>
        <mxCell id="ESqHXRTEYJbAyF0UcSam-50" value="Tb_client" style="swimlane;html=1;fontStyle=0;childLayout=stackLayout;horizontal=1;startSize=26;fillColor=#e0e0e0;horizontalStack=0;resizeParent=1;resizeLast=0;collapsible=1;marginBottom=0;swimlaneFillColor=#ffffff;align=center;rounded=0;shadow=0;comic=0;labelBackgroundColor=none;strokeWidth=1;fontFamily=Verdana;fontSize=14" vertex="1" parent="1">
          <mxGeometry x="40" y="878" width="160" height="186" as="geometry" />
        </mxCell>
        <mxCell id="ESqHXRTEYJbAyF0UcSam-51" value="id_client" style="shape=partialRectangle;top=0;left=0;right=0;bottom=1;html=1;align=left;verticalAlign=middle;fillColor=none;spacingLeft=34;spacingRight=4;whiteSpace=wrap;overflow=hidden;rotatable=0;points=[[0,0.5],[1,0.5]];portConstraint=eastwest;dropTarget=0;fontStyle=5;" vertex="1" parent="ESqHXRTEYJbAyF0UcSam-50">
          <mxGeometry y="26" width="160" height="30" as="geometry" />
        </mxCell>
        <mxCell id="ESqHXRTEYJbAyF0UcSam-52" value="PK" style="shape=partialRectangle;top=0;left=0;bottom=0;html=1;fillColor=none;align=left;verticalAlign=middle;spacingLeft=4;spacingRight=4;whiteSpace=wrap;overflow=hidden;rotatable=0;points=[];portConstraint=eastwest;part=1;" vertex="1" connectable="0" parent="ESqHXRTEYJbAyF0UcSam-51">
          <mxGeometry width="30" height="30" as="geometry" />
        </mxCell>
        <mxCell id="ESqHXRTEYJbAyF0UcSam-53" value="prenom_client" style="shape=partialRectangle;top=0;left=0;right=0;bottom=0;html=1;align=left;verticalAlign=top;fillColor=none;spacingLeft=34;spacingRight=4;whiteSpace=wrap;overflow=hidden;rotatable=0;points=[[0,0.5],[1,0.5]];portConstraint=eastwest;dropTarget=0;" vertex="1" parent="ESqHXRTEYJbAyF0UcSam-50">
          <mxGeometry y="56" width="160" height="26" as="geometry" />
        </mxCell>
        <mxCell id="ESqHXRTEYJbAyF0UcSam-54" value="" style="shape=partialRectangle;top=0;left=0;bottom=0;html=1;fillColor=none;align=left;verticalAlign=top;spacingLeft=4;spacingRight=4;whiteSpace=wrap;overflow=hidden;rotatable=0;points=[];portConstraint=eastwest;part=1;" vertex="1" connectable="0" parent="ESqHXRTEYJbAyF0UcSam-53">
          <mxGeometry width="30" height="26" as="geometry" />
        </mxCell>
        <mxCell id="ESqHXRTEYJbAyF0UcSam-55" value="nom_client" style="shape=partialRectangle;top=0;left=0;right=0;bottom=0;html=1;align=left;verticalAlign=top;fillColor=none;spacingLeft=34;spacingRight=4;whiteSpace=wrap;overflow=hidden;rotatable=0;points=[[0,0.5],[1,0.5]];portConstraint=eastwest;dropTarget=0;" vertex="1" parent="ESqHXRTEYJbAyF0UcSam-50">
          <mxGeometry y="82" width="160" height="26" as="geometry" />
        </mxCell>
        <mxCell id="ESqHXRTEYJbAyF0UcSam-56" value="" style="shape=partialRectangle;top=0;left=0;bottom=0;html=1;fillColor=none;align=left;verticalAlign=top;spacingLeft=4;spacingRight=4;whiteSpace=wrap;overflow=hidden;rotatable=0;points=[];portConstraint=eastwest;part=1;" vertex="1" connectable="0" parent="ESqHXRTEYJbAyF0UcSam-55">
          <mxGeometry width="30" height="26" as="geometry" />
        </mxCell>
        <mxCell id="ESqHXRTEYJbAyF0UcSam-57" value="telephone_client" style="shape=partialRectangle;top=0;left=0;right=0;bottom=0;html=1;align=left;verticalAlign=top;fillColor=none;spacingLeft=34;spacingRight=4;whiteSpace=wrap;overflow=hidden;rotatable=0;points=[[0,0.5],[1,0.5]];portConstraint=eastwest;dropTarget=0;" vertex="1" parent="ESqHXRTEYJbAyF0UcSam-50">
          <mxGeometry y="108" width="160" height="26" as="geometry" />
        </mxCell>
        <mxCell id="ESqHXRTEYJbAyF0UcSam-58" value="" style="shape=partialRectangle;top=0;left=0;bottom=0;html=1;fillColor=none;align=left;verticalAlign=top;spacingLeft=4;spacingRight=4;whiteSpace=wrap;overflow=hidden;rotatable=0;points=[];portConstraint=eastwest;part=1;" vertex="1" connectable="0" parent="ESqHXRTEYJbAyF0UcSam-57">
          <mxGeometry width="30" height="26" as="geometry" />
        </mxCell>
        <mxCell id="ESqHXRTEYJbAyF0UcSam-59" value="email_client" style="shape=partialRectangle;top=0;left=0;right=0;bottom=0;html=1;align=left;verticalAlign=top;fillColor=none;spacingLeft=34;spacingRight=4;whiteSpace=wrap;overflow=hidden;rotatable=0;points=[[0,0.5],[1,0.5]];portConstraint=eastwest;dropTarget=0;" vertex="1" parent="ESqHXRTEYJbAyF0UcSam-50">
          <mxGeometry y="134" width="160" height="26" as="geometry" />
        </mxCell>
        <mxCell id="ESqHXRTEYJbAyF0UcSam-60" value="" style="shape=partialRectangle;top=0;left=0;bottom=0;html=1;fillColor=none;align=left;verticalAlign=top;spacingLeft=4;spacingRight=4;whiteSpace=wrap;overflow=hidden;rotatable=0;points=[];portConstraint=eastwest;part=1;" vertex="1" connectable="0" parent="ESqHXRTEYJbAyF0UcSam-59">
          <mxGeometry width="30" height="26" as="geometry" />
        </mxCell>
        <mxCell id="ESqHXRTEYJbAyF0UcSam-61" value="&lt;font color=&quot;#ff0000&quot;&gt;# id_reservation&lt;/font&gt;" style="shape=partialRectangle;top=0;left=0;right=0;bottom=0;html=1;align=left;verticalAlign=top;fillColor=none;spacingLeft=34;spacingRight=4;whiteSpace=wrap;overflow=hidden;rotatable=0;points=[[0,0.5],[1,0.5]];portConstraint=eastwest;dropTarget=0;" vertex="1" parent="ESqHXRTEYJbAyF0UcSam-50">
          <mxGeometry y="160" width="160" height="26" as="geometry" />
        </mxCell>
        <mxCell id="ESqHXRTEYJbAyF0UcSam-62" value="" style="shape=partialRectangle;top=0;left=0;bottom=0;html=1;fillColor=none;align=left;verticalAlign=top;spacingLeft=4;spacingRight=4;whiteSpace=wrap;overflow=hidden;rotatable=0;points=[];portConstraint=eastwest;part=1;" vertex="1" connectable="0" parent="ESqHXRTEYJbAyF0UcSam-61">
          <mxGeometry width="30" height="26" as="geometry" />
        </mxCell>
        <mxCell id="ESqHXRTEYJbAyF0UcSam-63" value="Tb_reservation" style="swimlane;html=1;fontStyle=0;childLayout=stackLayout;horizontal=1;startSize=26;fillColor=#e0e0e0;horizontalStack=0;resizeParent=1;resizeLast=0;collapsible=1;marginBottom=0;swimlaneFillColor=#ffffff;align=center;rounded=0;shadow=0;comic=0;labelBackgroundColor=none;strokeWidth=1;fontFamily=Verdana;fontSize=14" vertex="1" parent="1">
          <mxGeometry x="440" y="878" width="160" height="134" as="geometry" />
        </mxCell>
        <mxCell id="ESqHXRTEYJbAyF0UcSam-64" value="id_reservation" style="shape=partialRectangle;top=0;left=0;right=0;bottom=1;html=1;align=left;verticalAlign=middle;fillColor=none;spacingLeft=34;spacingRight=4;whiteSpace=wrap;overflow=hidden;rotatable=0;points=[[0,0.5],[1,0.5]];portConstraint=eastwest;dropTarget=0;fontStyle=5;" vertex="1" parent="ESqHXRTEYJbAyF0UcSam-63">
          <mxGeometry y="26" width="160" height="30" as="geometry" />
        </mxCell>
        <mxCell id="ESqHXRTEYJbAyF0UcSam-65" value="PK" style="shape=partialRectangle;top=0;left=0;bottom=0;html=1;fillColor=none;align=left;verticalAlign=middle;spacingLeft=4;spacingRight=4;whiteSpace=wrap;overflow=hidden;rotatable=0;points=[];portConstraint=eastwest;part=1;" vertex="1" connectable="0" parent="ESqHXRTEYJbAyF0UcSam-64">
          <mxGeometry width="30" height="30" as="geometry" />
        </mxCell>
        <mxCell id="ESqHXRTEYJbAyF0UcSam-66" value="date_reservation" style="shape=partialRectangle;top=0;left=0;right=0;bottom=0;html=1;align=left;verticalAlign=top;fillColor=none;spacingLeft=34;spacingRight=4;whiteSpace=wrap;overflow=hidden;rotatable=0;points=[[0,0.5],[1,0.5]];portConstraint=eastwest;dropTarget=0;" vertex="1" parent="ESqHXRTEYJbAyF0UcSam-63">
          <mxGeometry y="56" width="160" height="26" as="geometry" />
        </mxCell>
        <mxCell id="ESqHXRTEYJbAyF0UcSam-67" value="" style="shape=partialRectangle;top=0;left=0;bottom=0;html=1;fillColor=none;align=left;verticalAlign=top;spacingLeft=4;spacingRight=4;whiteSpace=wrap;overflow=hidden;rotatable=0;points=[];portConstraint=eastwest;part=1;" vertex="1" connectable="0" parent="ESqHXRTEYJbAyF0UcSam-66">
          <mxGeometry width="30" height="26" as="geometry" />
        </mxCell>
        <mxCell id="ESqHXRTEYJbAyF0UcSam-68" value="nb_clients" style="shape=partialRectangle;top=0;left=0;right=0;bottom=0;html=1;align=left;verticalAlign=top;fillColor=none;spacingLeft=34;spacingRight=4;whiteSpace=wrap;overflow=hidden;rotatable=0;points=[[0,0.5],[1,0.5]];portConstraint=eastwest;dropTarget=0;" vertex="1" parent="ESqHXRTEYJbAyF0UcSam-63">
          <mxGeometry y="82" width="160" height="26" as="geometry" />
        </mxCell>
        <mxCell id="ESqHXRTEYJbAyF0UcSam-69" value="" style="shape=partialRectangle;top=0;left=0;bottom=0;html=1;fillColor=none;align=left;verticalAlign=top;spacingLeft=4;spacingRight=4;whiteSpace=wrap;overflow=hidden;rotatable=0;points=[];portConstraint=eastwest;part=1;" vertex="1" connectable="0" parent="ESqHXRTEYJbAyF0UcSam-68">
          <mxGeometry width="30" height="26" as="geometry" />
        </mxCell>
        <mxCell id="ESqHXRTEYJbAyF0UcSam-70" value="&lt;font color=&quot;#ff0000&quot;&gt;# id_client&lt;/font&gt;" style="shape=partialRectangle;top=0;left=0;right=0;bottom=0;html=1;align=left;verticalAlign=top;fillColor=none;spacingLeft=34;spacingRight=4;whiteSpace=wrap;overflow=hidden;rotatable=0;points=[[0,0.5],[1,0.5]];portConstraint=eastwest;dropTarget=0;" vertex="1" parent="ESqHXRTEYJbAyF0UcSam-63">
          <mxGeometry y="108" width="160" height="26" as="geometry" />
        </mxCell>
        <mxCell id="ESqHXRTEYJbAyF0UcSam-71" value="" style="shape=partialRectangle;top=0;left=0;bottom=0;html=1;fillColor=none;align=left;verticalAlign=top;spacingLeft=4;spacingRight=4;whiteSpace=wrap;overflow=hidden;rotatable=0;points=[];portConstraint=eastwest;part=1;" vertex="1" connectable="0" parent="ESqHXRTEYJbAyF0UcSam-70">
          <mxGeometry width="30" height="26" as="geometry" />
        </mxCell>
        <mxCell id="ESqHXRTEYJbAyF0UcSam-72" value="Tb_team" style="swimlane;html=1;fontStyle=0;childLayout=stackLayout;horizontal=1;startSize=26;fillColor=#e0e0e0;horizontalStack=0;resizeParent=1;resizeLast=0;collapsible=1;marginBottom=0;swimlaneFillColor=#ffffff;align=center;rounded=0;shadow=0;comic=0;labelBackgroundColor=none;strokeWidth=1;fontFamily=Verdana;fontSize=14" vertex="1" parent="1">
          <mxGeometry x="880" y="1000" width="160" height="160" as="geometry" />
        </mxCell>
        <mxCell id="ESqHXRTEYJbAyF0UcSam-73" value="id_team" style="shape=partialRectangle;top=0;left=0;right=0;bottom=1;html=1;align=left;verticalAlign=middle;fillColor=none;spacingLeft=34;spacingRight=4;whiteSpace=wrap;overflow=hidden;rotatable=0;points=[[0,0.5],[1,0.5]];portConstraint=eastwest;dropTarget=0;fontStyle=5;" vertex="1" parent="ESqHXRTEYJbAyF0UcSam-72">
          <mxGeometry y="26" width="160" height="30" as="geometry" />
        </mxCell>
        <mxCell id="ESqHXRTEYJbAyF0UcSam-74" value="PK" style="shape=partialRectangle;top=0;left=0;bottom=0;html=1;fillColor=none;align=left;verticalAlign=middle;spacingLeft=4;spacingRight=4;whiteSpace=wrap;overflow=hidden;rotatable=0;points=[];portConstraint=eastwest;part=1;" vertex="1" connectable="0" parent="ESqHXRTEYJbAyF0UcSam-73">
          <mxGeometry width="30" height="30" as="geometry" />
        </mxCell>
        <mxCell id="ESqHXRTEYJbAyF0UcSam-75" value="nom_team" style="shape=partialRectangle;top=0;left=0;right=0;bottom=0;html=1;align=left;verticalAlign=top;fillColor=none;spacingLeft=34;spacingRight=4;whiteSpace=wrap;overflow=hidden;rotatable=0;points=[[0,0.5],[1,0.5]];portConstraint=eastwest;dropTarget=0;" vertex="1" parent="ESqHXRTEYJbAyF0UcSam-72">
          <mxGeometry y="56" width="160" height="26" as="geometry" />
        </mxCell>
        <mxCell id="ESqHXRTEYJbAyF0UcSam-76" value="" style="shape=partialRectangle;top=0;left=0;bottom=0;html=1;fillColor=none;align=left;verticalAlign=top;spacingLeft=4;spacingRight=4;whiteSpace=wrap;overflow=hidden;rotatable=0;points=[];portConstraint=eastwest;part=1;" vertex="1" connectable="0" parent="ESqHXRTEYJbAyF0UcSam-75">
          <mxGeometry width="30" height="26" as="geometry" />
        </mxCell>
        <mxCell id="ESqHXRTEYJbAyF0UcSam-77" value="prenom_team" style="shape=partialRectangle;top=0;left=0;right=0;bottom=0;html=1;align=left;verticalAlign=top;fillColor=none;spacingLeft=34;spacingRight=4;whiteSpace=wrap;overflow=hidden;rotatable=0;points=[[0,0.5],[1,0.5]];portConstraint=eastwest;dropTarget=0;" vertex="1" parent="ESqHXRTEYJbAyF0UcSam-72">
          <mxGeometry y="82" width="160" height="26" as="geometry" />
        </mxCell>
        <mxCell id="ESqHXRTEYJbAyF0UcSam-78" value="" style="shape=partialRectangle;top=0;left=0;bottom=0;html=1;fillColor=none;align=left;verticalAlign=top;spacingLeft=4;spacingRight=4;whiteSpace=wrap;overflow=hidden;rotatable=0;points=[];portConstraint=eastwest;part=1;" vertex="1" connectable="0" parent="ESqHXRTEYJbAyF0UcSam-77">
          <mxGeometry width="30" height="26" as="geometry" />
        </mxCell>
        <mxCell id="ESqHXRTEYJbAyF0UcSam-79" value="fonction_team" style="shape=partialRectangle;top=0;left=0;right=0;bottom=0;html=1;align=left;verticalAlign=top;fillColor=none;spacingLeft=34;spacingRight=4;whiteSpace=wrap;overflow=hidden;rotatable=0;points=[[0,0.5],[1,0.5]];portConstraint=eastwest;dropTarget=0;" vertex="1" parent="ESqHXRTEYJbAyF0UcSam-72">
          <mxGeometry y="108" width="160" height="26" as="geometry" />
        </mxCell>
        <mxCell id="ESqHXRTEYJbAyF0UcSam-80" value="" style="shape=partialRectangle;top=0;left=0;bottom=0;html=1;fillColor=none;align=left;verticalAlign=top;spacingLeft=4;spacingRight=4;whiteSpace=wrap;overflow=hidden;rotatable=0;points=[];portConstraint=eastwest;part=1;" vertex="1" connectable="0" parent="ESqHXRTEYJbAyF0UcSam-79">
          <mxGeometry width="30" height="26" as="geometry" />
        </mxCell>
        <mxCell id="ESqHXRTEYJbAyF0UcSam-81" value="duree_emploi_team" style="shape=partialRectangle;top=0;left=0;right=0;bottom=0;html=1;align=left;verticalAlign=top;fillColor=none;spacingLeft=34;spacingRight=4;whiteSpace=wrap;overflow=hidden;rotatable=0;points=[[0,0.5],[1,0.5]];portConstraint=eastwest;dropTarget=0;" vertex="1" parent="ESqHXRTEYJbAyF0UcSam-72">
          <mxGeometry y="134" width="160" height="26" as="geometry" />
        </mxCell>
        <mxCell id="ESqHXRTEYJbAyF0UcSam-82" value="" style="shape=partialRectangle;top=0;left=0;bottom=0;html=1;fillColor=none;align=left;verticalAlign=top;spacingLeft=4;spacingRight=4;whiteSpace=wrap;overflow=hidden;rotatable=0;points=[];portConstraint=eastwest;part=1;" vertex="1" connectable="0" parent="ESqHXRTEYJbAyF0UcSam-81">
          <mxGeometry width="30" height="26" as="geometry" />
        </mxCell>
        <mxCell id="ESqHXRTEYJbAyF0UcSam-83" value="" style="endArrow=none;html=1;rounded=0;entryX=0.5;entryY=1;entryDx=0;entryDy=0;exitX=0.488;exitY=-0.001;exitDx=0;exitDy=0;exitPerimeter=0;" edge="1" parent="1" source="ESqHXRTEYJbAyF0UcSam-8" target="ESqHXRTEYJbAyF0UcSam-34">
          <mxGeometry width="50" height="50" relative="1" as="geometry">
            <mxPoint x="660" y="590" as="sourcePoint" />
            <mxPoint x="850" y="513" as="targetPoint" />
          </mxGeometry>
        </mxCell>
        <mxCell id="ESqHXRTEYJbAyF0UcSam-84" value="" style="endArrow=none;html=1;rounded=0;exitX=0.992;exitY=1.14;exitDx=0;exitDy=0;entryX=0.498;entryY=0.988;entryDx=0;entryDy=0;entryPerimeter=0;exitPerimeter=0;" edge="1" parent="1" target="ESqHXRTEYJbAyF0UcSam-32" source="ESqHXRTEYJbAyF0UcSam-99">
          <mxGeometry width="50" height="50" relative="1" as="geometry">
            <mxPoint x="859.66" y="402" as="sourcePoint" />
            <mxPoint x="860" y="230" as="targetPoint" />
          </mxGeometry>
        </mxCell>
        <mxCell id="ESqHXRTEYJbAyF0UcSam-85" value="Choisir" style="rounded=1;whiteSpace=wrap;html=1;" vertex="1" parent="1">
          <mxGeometry x="800" y="270" width="120" height="30" as="geometry" />
        </mxCell>
        <mxCell id="ESqHXRTEYJbAyF0UcSam-86" value="Choisir" style="rounded=1;whiteSpace=wrap;html=1;" vertex="1" parent="1">
          <mxGeometry x="800" y="550" width="120" height="30" as="geometry" />
        </mxCell>
        <mxCell id="ESqHXRTEYJbAyF0UcSam-87" value="" style="endArrow=none;html=1;rounded=0;exitX=1;exitY=0.5;exitDx=0;exitDy=0;entryX=0;entryY=0.404;entryDx=0;entryDy=0;entryPerimeter=0;" edge="1" parent="1" source="ESqHXRTEYJbAyF0UcSam-90" target="ESqHXRTEYJbAyF0UcSam-35">
          <mxGeometry width="50" height="50" relative="1" as="geometry">
            <mxPoint x="670" y="390" as="sourcePoint" />
            <mxPoint x="720" y="340" as="targetPoint" />
          </mxGeometry>
        </mxCell>
        <mxCell id="ESqHXRTEYJbAyF0UcSam-88" value="" style="endArrow=none;html=1;rounded=0;exitX=1;exitY=0.5;exitDx=0;exitDy=0;entryX=0;entryY=0.404;entryDx=0;entryDy=0;entryPerimeter=0;" edge="1" parent="1" source="ESqHXRTEYJbAyF0UcSam-92">
          <mxGeometry width="50" height="50" relative="1" as="geometry">
            <mxPoint x="300" y="439.5" as="sourcePoint" />
            <mxPoint x="460" y="440.5" as="targetPoint" />
          </mxGeometry>
        </mxCell>
        <mxCell id="ESqHXRTEYJbAyF0UcSam-89" value="" style="endArrow=none;html=1;rounded=0;exitX=0.999;exitY=0.005;exitDx=0;exitDy=0;exitPerimeter=0;entryX=0;entryY=0.5;entryDx=0;entryDy=0;" edge="1" parent="1" source="ESqHXRTEYJbAyF0UcSam-6" target="ESqHXRTEYJbAyF0UcSam-90">
          <mxGeometry width="50" height="50" relative="1" as="geometry">
            <mxPoint x="620" y="439" as="sourcePoint" />
            <mxPoint x="780" y="440" as="targetPoint" />
          </mxGeometry>
        </mxCell>
        <mxCell id="ESqHXRTEYJbAyF0UcSam-90" value="Composer" style="rounded=1;whiteSpace=wrap;html=1;" vertex="1" parent="1">
          <mxGeometry x="655" y="425" width="90" height="30" as="geometry" />
        </mxCell>
        <mxCell id="ESqHXRTEYJbAyF0UcSam-91" value="" style="endArrow=none;html=1;rounded=0;exitX=0.998;exitY=0.04;exitDx=0;exitDy=0;exitPerimeter=0;entryX=0;entryY=0.5;entryDx=0;entryDy=0;" edge="1" parent="1" source="ESqHXRTEYJbAyF0UcSam-44" target="ESqHXRTEYJbAyF0UcSam-92">
          <mxGeometry width="50" height="50" relative="1" as="geometry">
            <mxPoint x="290" y="440" as="sourcePoint" />
            <mxPoint x="460" y="440.5" as="targetPoint" />
          </mxGeometry>
        </mxCell>
        <mxCell id="ESqHXRTEYJbAyF0UcSam-92" value="Ajouter" style="rounded=1;whiteSpace=wrap;html=1;" vertex="1" parent="1">
          <mxGeometry x="330" y="425" width="90" height="30" as="geometry" />
        </mxCell>
        <mxCell id="ESqHXRTEYJbAyF0UcSam-93" value="" style="endArrow=none;html=1;rounded=0;exitX=1;exitY=0.5;exitDx=0;exitDy=0;entryX=0;entryY=0.5;entryDx=0;entryDy=0;" edge="1" parent="1" source="ESqHXRTEYJbAyF0UcSam-95">
          <mxGeometry width="50" height="50" relative="1" as="geometry">
            <mxPoint x="200" y="950" as="sourcePoint" />
            <mxPoint x="440" y="950" as="targetPoint" />
          </mxGeometry>
        </mxCell>
        <mxCell id="ESqHXRTEYJbAyF0UcSam-94" value="" style="endArrow=none;html=1;rounded=0;exitX=1;exitY=0.5;exitDx=0;exitDy=0;entryX=0;entryY=0.5;entryDx=0;entryDy=0;" edge="1" parent="1" target="ESqHXRTEYJbAyF0UcSam-95">
          <mxGeometry width="50" height="50" relative="1" as="geometry">
            <mxPoint x="200" y="950" as="sourcePoint" />
            <mxPoint x="440" y="950" as="targetPoint" />
          </mxGeometry>
        </mxCell>
        <mxCell id="ESqHXRTEYJbAyF0UcSam-95" value="Effectuer" style="rounded=1;whiteSpace=wrap;html=1;" vertex="1" parent="1">
          <mxGeometry x="280" y="934" width="90" height="30" as="geometry" />
        </mxCell>
        <mxCell id="ESqHXRTEYJbAyF0UcSam-96" value="1,N" style="text;strokeColor=none;align=center;fillColor=none;html=1;verticalAlign=middle;whiteSpace=wrap;rounded=0;" vertex="1" parent="1">
          <mxGeometry x="750" y="410" width="30" height="30" as="geometry" />
        </mxCell>
        <mxCell id="ESqHXRTEYJbAyF0UcSam-97" value="0,N" style="text;strokeColor=none;align=center;fillColor=none;html=1;verticalAlign=middle;whiteSpace=wrap;rounded=0;" vertex="1" parent="1">
          <mxGeometry x="290" y="410" width="30" height="30" as="geometry" />
        </mxCell>
        <mxCell id="ESqHXRTEYJbAyF0UcSam-98" value="1,N" style="text;strokeColor=none;align=center;fillColor=none;html=1;verticalAlign=middle;whiteSpace=wrap;rounded=0;" vertex="1" parent="1">
          <mxGeometry x="830" y="230" width="30" height="30" as="geometry" />
        </mxCell>
        <mxCell id="ESqHXRTEYJbAyF0UcSam-99" value="1,N" style="text;strokeColor=none;align=center;fillColor=none;html=1;verticalAlign=middle;whiteSpace=wrap;rounded=0;" vertex="1" parent="1">
          <mxGeometry x="830" y="327" width="30" height="30" as="geometry" />
        </mxCell>
        <mxCell id="ESqHXRTEYJbAyF0UcSam-101" value="1,N" style="text;strokeColor=none;align=center;fillColor=none;html=1;verticalAlign=middle;whiteSpace=wrap;rounded=0;" vertex="1" parent="1">
          <mxGeometry x="830" y="620" width="30" height="30" as="geometry" />
        </mxCell>
        <mxCell id="ESqHXRTEYJbAyF0UcSam-102" value="1,N" style="text;strokeColor=none;align=center;fillColor=none;html=1;verticalAlign=middle;whiteSpace=wrap;rounded=0;" vertex="1" parent="1">
          <mxGeometry x="620" y="410" width="30" height="30" as="geometry" />
        </mxCell>
        <mxCell id="ESqHXRTEYJbAyF0UcSam-103" value="1,N" style="text;strokeColor=none;align=center;fillColor=none;html=1;verticalAlign=middle;whiteSpace=wrap;rounded=0;" vertex="1" parent="1">
          <mxGeometry x="430" y="410" width="30" height="30" as="geometry" />
        </mxCell>
        <mxCell id="ESqHXRTEYJbAyF0UcSam-104" value="0,N" style="text;strokeColor=none;align=center;fillColor=none;html=1;verticalAlign=middle;whiteSpace=wrap;rounded=0;" vertex="1" parent="1">
          <mxGeometry x="200" y="920" width="30" height="30" as="geometry" />
        </mxCell>
        <mxCell id="ESqHXRTEYJbAyF0UcSam-105" value="1,N" style="text;strokeColor=none;align=center;fillColor=none;html=1;verticalAlign=middle;whiteSpace=wrap;rounded=0;" vertex="1" parent="1">
          <mxGeometry x="410" y="920" width="30" height="30" as="geometry" />
        </mxCell>
        <mxCell id="ESqHXRTEYJbAyF0UcSam-108" value="" style="ellipse;whiteSpace=wrap;html=1;fillColor=none;strokeColor=#ae4132;" vertex="1" parent="1">
          <mxGeometry x="420" y="924" width="20" height="22" as="geometry" />
        </mxCell>
        <mxCell id="ESqHXRTEYJbAyF0UcSam-109" value="" style="ellipse;whiteSpace=wrap;html=1;fillColor=none;strokeColor=#ae4132;" vertex="1" parent="1">
          <mxGeometry x="210" y="924" width="20" height="22" as="geometry" />
        </mxCell>
        <mxCell id="ESqHXRTEYJbAyF0UcSam-110" value="" style="ellipse;whiteSpace=wrap;html=1;fillColor=none;strokeColor=#ae4132;" vertex="1" parent="1">
          <mxGeometry x="440" y="410" width="20" height="22" as="geometry" />
        </mxCell>
        <mxCell id="ESqHXRTEYJbAyF0UcSam-111" value="" style="endArrow=none;html=1;rounded=0;strokeColor=#ae4132;exitX=0.517;exitY=0.026;exitDx=0;exitDy=0;exitPerimeter=0;" edge="1" parent="1" source="ESqHXRTEYJbAyF0UcSam-109">
          <mxGeometry width="50" height="50" relative="1" as="geometry">
            <mxPoint x="230" y="928" as="sourcePoint" />
            <mxPoint x="300" y="850" as="targetPoint" />
          </mxGeometry>
        </mxCell>
        <mxCell id="ESqHXRTEYJbAyF0UcSam-112" value="" style="endArrow=none;html=1;rounded=0;strokeColor=#ae4132;entryX=0.5;entryY=0;entryDx=0;entryDy=0;" edge="1" parent="1" target="ESqHXRTEYJbAyF0UcSam-108">
          <mxGeometry width="50" height="50" relative="1" as="geometry">
            <mxPoint x="350" y="850" as="sourcePoint" />
            <mxPoint x="310" y="860" as="targetPoint" />
          </mxGeometry>
        </mxCell>
        <mxCell id="ESqHXRTEYJbAyF0UcSam-113" value="" style="rounded=1;whiteSpace=wrap;html=1;fillColor=#fad9d5;strokeColor=#ae4132;" vertex="1" parent="1">
          <mxGeometry x="265" y="790" width="120" height="60" as="geometry" />
        </mxCell>
        <mxCell id="ESqHXRTEYJbAyF0UcSam-114" value="&lt;font color=&quot;#ff0000&quot;&gt;Match nul&lt;/font&gt;" style="text;whiteSpace=wrap;html=1;" vertex="1" parent="1">
          <mxGeometry x="295" y="848" width="60" height="30" as="geometry" />
        </mxCell>
        <mxCell id="ESqHXRTEYJbAyF0UcSam-115" value="&lt;font color=&quot;#ff0000&quot;&gt;# id_client&lt;br&gt;# id_reservation&lt;br&gt;&lt;/font&gt;" style="text;whiteSpace=wrap;html=1;" vertex="1" parent="1">
          <mxGeometry x="280" y="800" width="90" height="40" as="geometry" />
        </mxCell>
        <mxCell id="ESqHXRTEYJbAyF0UcSam-116" value="&lt;font color=&quot;#ff0000&quot;&gt;entité forte&lt;/font&gt;" style="text;whiteSpace=wrap;html=1;" vertex="1" parent="1">
          <mxGeometry x="235" y="904" width="60" height="30" as="geometry" />
        </mxCell>
        <mxCell id="ESqHXRTEYJbAyF0UcSam-117" value="&lt;font color=&quot;#ff0000&quot;&gt;entité forte&lt;/font&gt;" style="text;whiteSpace=wrap;html=1;" vertex="1" parent="1">
          <mxGeometry x="360" y="904" width="60" height="30" as="geometry" />
        </mxCell>
        <mxCell id="ESqHXRTEYJbAyF0UcSam-119" value="" style="ellipse;whiteSpace=wrap;html=1;fillColor=none;strokeColor=#ae4132;" vertex="1" parent="1">
          <mxGeometry x="300" y="410" width="20" height="22" as="geometry" />
        </mxCell>
        <mxCell id="ESqHXRTEYJbAyF0UcSam-121" value="" style="endArrow=none;html=1;rounded=0;strokeColor=#ae4132;exitX=0.517;exitY=0.026;exitDx=0;exitDy=0;exitPerimeter=0;" edge="1" parent="1">
          <mxGeometry width="50" height="50" relative="1" as="geometry">
            <mxPoint x="310" y="410" as="sourcePoint" />
            <mxPoint x="350" y="360" as="targetPoint" />
          </mxGeometry>
        </mxCell>
        <mxCell id="ESqHXRTEYJbAyF0UcSam-122" value="" style="endArrow=none;html=1;rounded=0;strokeColor=#ae4132;exitX=0.5;exitY=0;exitDx=0;exitDy=0;" edge="1" parent="1" source="ESqHXRTEYJbAyF0UcSam-110">
          <mxGeometry width="50" height="50" relative="1" as="geometry">
            <mxPoint x="320" y="420" as="sourcePoint" />
            <mxPoint x="410" y="360" as="targetPoint" />
          </mxGeometry>
        </mxCell>
        <mxCell id="ESqHXRTEYJbAyF0UcSam-123" value="" style="rounded=1;whiteSpace=wrap;html=1;fillColor=#fad9d5;strokeColor=#ae4132;" vertex="1" parent="1">
          <mxGeometry x="320" y="300" width="120" height="60" as="geometry" />
        </mxCell>
        <mxCell id="ESqHXRTEYJbAyF0UcSam-124" value="&lt;font color=&quot;#ff0000&quot;&gt;# id_poivre&lt;br&gt;# id_menu&lt;br&gt;&lt;/font&gt;" style="text;whiteSpace=wrap;html=1;" vertex="1" parent="1">
          <mxGeometry x="345" y="310" width="75" height="40" as="geometry" />
        </mxCell>
        <mxCell id="ESqHXRTEYJbAyF0UcSam-134" value="1,N" style="text;strokeColor=none;align=center;fillColor=none;html=1;verticalAlign=middle;whiteSpace=wrap;rounded=0;" vertex="1" parent="1">
          <mxGeometry x="830" y="490" width="30" height="30" as="geometry" />
        </mxCell>
      </root>
    </mxGraphModel>
  </diagram>
</mxfile>
